<?xml version="1.0" encoding="iso-8859-1"?>
<!-- Uploaded to: SVG Repo, www.svgrepo.com, Generator: SVG Repo Mixer Tools -->
<svg version="1.1" id="Layer_1" xmlns="http://www.w3.org/2000/svg" xmlns:xlink="http://www.w3.org/1999/xlink" 
	 viewBox="0 0 511.999 511.999" xml:space="preserve">
<path style="fill:#40CACF;" d="M266.83,11.855c-6.284-5.2-15.378-5.2-21.662,0L9.674,206.748v280.301
	c0,9.382,7.605,16.988,16.988,16.988h458.675c9.382,0,16.988-7.606,16.988-16.988V206.748L266.83,11.855z"/>
<path style="fill:#3AB0B0;" d="M9.674,487.049c0,9.382,7.605,16.988,16.988,16.988h458.675c9.382,0,16.988-7.606,16.988-16.988
	V206.748H9.674C9.674,206.748,9.674,487.049,9.674,487.049z"/>
<ellipse transform="matrix(0.2699 -0.9629 0.9629 0.2699 30.6221 493.8266)" style="fill:#F1EDE8;" cx="340.95" cy="226.72" rx="169.881" ry="59.459"/>
<path style="fill:#DE90C7;" d="M302.104,365.254c-2.845-3.724-8.337-16.33-8.976-43.663c-0.699-29.873,4.663-66.823,15.097-104.042
	c10.434-37.218,25.06-71.57,41.186-96.727c14.754-23.019,25.998-30.933,30.365-32.635c2.845,3.724,8.337,16.33,8.976,43.663
	c0.699,29.873-4.663,66.823-15.097,104.042c-10.434,37.218-25.06,71.57-41.186,96.727
	C317.714,355.638,306.47,363.553,302.104,365.254z"/>
<path style="fill:#C971C2;" d="M298.456,260.246c-3.898,22.06-5.757,43.035-5.328,61.345c0.639,27.334,6.129,39.94,8.976,43.663
	c4.367-1.702,15.61-9.616,30.365-32.635c16.126-25.157,30.752-59.51,41.186-96.727c0.535-1.91,1.049-3.818,1.557-5.725
	L298.456,260.246z"/>
<path style="fill:#F1EDE8;" d="M228.31,247.171c-8.399-29.961-19.091-57.245-30.783-80.016H97.793
	c-0.812,31.318,4.398,70.67,16.016,112.114c25.326,90.339,71.487,156.388,103.106,147.524
	C248.533,417.929,253.636,337.509,228.31,247.171z"/>
<path style="fill:#DE90C7;" d="M168.549,167.154h-45.265c-0.012,0.398-0.025,0.79-0.035,1.194
	c-0.699,29.873,4.663,66.823,15.097,104.042c10.434,37.219,25.06,71.57,41.186,96.727c14.754,23.019,25.998,30.933,30.365,32.635
	c2.845-3.724,8.337-16.33,8.976-43.663c0.699-29.873-4.663-66.823-15.097-104.042C194.642,221.474,182.298,191.094,168.549,167.154z
	"/>
<path style="fill:#C971C2;" d="M203.732,253.9l-75.601-26.804c2.507,14.74,5.923,29.991,10.214,45.295
	c10.434,37.218,25.06,71.57,41.186,96.727c14.754,23.019,25.998,30.933,30.365,32.635c2.845-3.724,8.337-16.33,8.976-43.663
	c0.699-29.873-4.663-66.823-15.097-104.042C203.76,253.999,203.746,253.95,203.732,253.9z"/>
<path style="fill:#F9C900;" d="M255.999,308.675L9.674,206.748v280.301c0,9.382,7.605,16.988,16.988,16.988h44.043h370.588h44.043
	c9.382,0,16.988-7.606,16.988-16.988V206.748L255.999,308.675z"/>
<path style="fill:#F9AA0C;" d="M35.156,478.555V215.242l-25.482-8.494v280.301c0,9.383,7.605,16.988,16.988,16.988h458.675
	c9.383,0,16.988-7.605,16.988-16.988v-8.494H35.156z"/>
<path style="fill:#E3DCD2;" d="M112.711,301.907c25.416,8.453,61.979-51.215,83.83-135.106H94.486
	C83.844,237.686,90.548,294.536,112.711,301.907z"/>
<path style="fill:#D6CABB;" d="M111.602,206.748c0-14.293,2.338-27.834,6.511-39.947H94.486
	c-10.643,70.885-3.939,127.736,18.224,135.106c9.264,3.08,20.009-2.896,30.982-15.789
	C124.428,269.626,111.602,240.248,111.602,206.748z"/>
<path style="fill:#C971C2;" d="M315.457,402.109H196.542c0,32.838,26.62,59.458,59.458,59.458
	C288.837,461.567,315.457,434.947,315.457,402.109z"/>
<path style="fill:#DE90C7;" d="M222.097,450.943c9.618,6.69,21.299,10.623,33.903,10.623s24.284-3.933,33.903-10.623
	c-1.1-17.772-15.854-31.847-33.903-31.847C237.951,419.096,223.197,433.172,222.097,450.943z"/>
<rect x="239.009" y="402.105" style="fill:#F1EDE8;" width="33.976" height="33.976"/>
<path d="M502.325,266.736c4.399,0,7.963-3.564,7.963-7.963v-51.937c0.028-2.408-1.095-4.762-2.957-6.282l-83.867-69.407
	c-0.415-0.343-0.856-0.636-1.313-0.882c-0.076-2.833-0.185-5.634-0.358-8.361c-2.418-38.107-13.777-61.075-32.849-66.423
	c-12.536-3.513-26.189,1.214-40.287,13.758L271.908,5.721c-9.22-7.628-22.597-7.628-31.817,0l-51.64,42.737
	c-3.387,2.805-3.862,7.824-1.058,11.213c2.805,3.388,7.825,3.861,11.213,1.057l51.641-42.737c3.333-2.761,8.173-2.761,11.508,0
	l75.76,62.698c-3.705,4.308-7.429,9.12-11.159,14.458c-19.975,28.579-37.849,68.844-50.333,113.376
	c-8.68,30.962-14.129,61.94-15.821,89.796l-4.201,1.738l-8.573-3.547c-2.753-16.859-6.592-34.165-11.448-51.488
	c-8.248-29.418-19.093-57.601-31.368-81.504c-1.472-2.867-4.88-4.68-8.069-4.68H94.488c-3.941,0-7.289,2.884-7.875,6.781
	c-3.366,22.415-5.062,43.45-5.061,62.254l-56.608-23.424l137.84-114.076c3.387-2.805,3.862-7.824,1.057-11.213
	c-2.805-3.388-7.823-3.859-11.213-1.058L4.659,200.56c-1.857,1.519-2.977,3.87-2.948,6.274v280.214
	c0,13.758,11.193,24.951,24.951,24.951h458.675c13.758,0,24.951-11.193,24.951-24.951V300.711c0-4.399-3.564-7.963-7.963-7.963
	c-4.399,0-7.963,3.564-7.963,7.963v186.337c0,4.976-4.048,9.025-9.025,9.025H26.662c-4.976,0-9.025-4.048-9.025-9.025V218.659
	l64.453,26.67c0.307,4.819,0.737,9.456,1.31,13.867c3.725,28.68,12.741,45.59,26.798,50.266c7.267,2.413,15.036,0.873,21.635-2.712
	c9.21-5.001,18.749-15.132,28.04-29.235l93.081,38.516c1.937,0.802,4.152,0.802,6.088,0l235.318-97.373v40.114
	C494.362,263.171,497.926,266.736,502.325,266.736z M220.643,249.319c3.761,13.417,6.892,26.814,9.358,39.979l-10.604-4.387
	c-2.209-10.926-4.874-22.02-7.956-33.012c-4.846-17.286-10.588-33.992-17.062-49.691c1.513-4.555,2.989-9.198,4.415-13.944
	C207.171,207.053,214.618,227.827,220.643,249.319z M124.233,292.756c-3.528,1.916-6.478,2.439-9.009,1.594h-0.001
	c-7.328-2.437-13.321-16.346-16.03-37.204c-2.852-21.96-2.062-51.002,2.199-82.383h84.747
	C166.972,243.074,140.978,283.664,124.233,292.756z M186.134,225.022c3.647,10.086,6.984,20.514,9.973,31.176
	c1.988,7.088,3.779,14.216,5.399,21.31l-33.32-13.787C174.436,252.434,180.48,239.411,186.134,225.022z M487.056,204.448
	l-79.1,32.732c7.988-30.346,12.755-60.07,13.98-86.625L487.056,204.448z M291.357,212.821
	c12.012-42.851,29.078-81.403,48.053-108.551c16.883-24.157,33.795-36.662,45.236-33.456c11.442,3.208,19.389,22.682,21.254,52.095
	c2.098,33.055-3.364,74.86-15.376,117.712c-0.349,1.248-0.703,2.49-1.061,3.728c-0.051,0.177-0.087,0.356-0.125,0.534l-11.429,4.729
	c1.184-3.839,2.329-7.701,3.416-11.572c10.64-37.959,16.106-75.738,15.389-106.375c-0.771-32.959-8.316-45.313-10.609-48.314
	c-2.154-2.818-5.912-3.871-9.219-2.584c-3.52,1.372-16.389,8.005-34.177,35.758c-16.539,25.803-31.508,60.917-42.149,98.875
	c-6.855,24.452-11.652,49.292-13.919,71.979l-9.981,4.13C278.752,266.822,283.78,239.844,291.357,212.821z M303.449,280.422
	c2.441-19.412,6.687-40.19,12.443-60.723c10.227-36.48,24.512-70.069,40.223-94.579c8.731-13.621,15.738-21.123,20.358-25.151
	c1.852,5.841,3.939,15.892,4.316,32.068c0.682,29.104-4.576,65.224-14.802,101.705c-2.257,8.052-4.756,16.068-7.418,23.872
	L303.449,280.422z"/>
<path d="M348.902,342.651c0-4.399-3.564-7.963-7.963-7.963c-4.399,0-7.963,3.564-7.963,7.963c0,9.66-7.859,17.519-17.519,17.519
	c-9.66,0-17.519-7.859-17.519-17.519c0-4.399-3.564-7.963-7.963-7.963c-4.399,0-7.963,3.564-7.963,7.963
	c0,18.441,15.004,33.445,33.445,33.445C333.899,376.096,348.902,361.093,348.902,342.651z"/>
<path d="M229.987,342.651c0-4.399-3.564-7.963-7.963-7.963c-4.399,0-7.963,3.564-7.963,7.963c0,9.66-7.859,17.519-17.519,17.519
	c-9.66,0-17.519-7.859-17.519-17.519c0-4.399-3.564-7.963-7.963-7.963c-4.399,0-7.963,3.564-7.963,7.963
	c0,18.441,15.004,33.445,33.445,33.445S229.987,361.093,229.987,342.651z"/>
<path d="M255.999,469.53c37.176,0,67.421-30.245,67.421-67.421c0-4.399-3.564-7.963-7.963-7.963H196.542
	c-4.399,0-7.963,3.564-7.963,7.963C188.579,439.284,218.823,469.53,255.999,469.53z M265.024,410.072v18.05h-18.05v-18.05H265.024z
	 M231.048,410.072v26.013c0,4.399,3.564,7.963,7.963,7.963h33.976c4.399,0,7.963-3.564,7.963-7.963v-26.013h25.929
	c-3.838,24.627-25.193,43.532-50.88,43.532s-47.042-18.904-50.88-43.532H231.048z"/>
</svg>